<svg height="24px" viewBox="0 0 74 74" width="24px" xmlns="http://www.w3.org/2000/svg"><path d="M69.009 23.307H4.991a3 3 0 0 1-3-3V7.017a3 3 0 0 1 3-3h64.018a3 3 0 0 1 3 3v13.29a3 3 0 0 1-3 3zM4.991 6.017a1 1 0 0 0-1 1v13.29a1 1 0 0 0 1 1h64.018a1 1 0 0 0 1-1V7.017a1 1 0 0 0-1-1z"/><path d="M59.991 18.007a4.345 4.345 0 1 1 4.346-4.345 4.35 4.35 0 0 1-4.346 4.345zm0-6.69a2.345 2.345 0 1 0 2.346 2.345 2.348 2.348 0 0 0-2.346-2.345zM46.646 18.007a4.345 4.345 0 1 1 4.345-4.345 4.35 4.35 0 0 1-4.345 4.345zm0-6.69a2.345 2.345 0 1 0 2.345 2.345 2.348 2.348 0 0 0-2.345-2.345zM37.28 14.662H10.663a1 1 0 0 1 0-2H37.28a1 1 0 0 1 0 2zM69.009 46.645H4.991a3 3 0 0 1-3-3v-13.29a3 3 0 0 1 3-3h64.018a3 3 0 0 1 3 3v13.29a3 3 0 0 1-3 3zM4.991 29.355a1 1 0 0 0-1 1v13.29a1 1 0 0 0 1 1h64.018a1 1 0 0 0 1-1v-13.29a1 1 0 0 0-1-1z"/><path d="M59.991 41.345A4.345 4.345 0 1 1 64.337 37a4.35 4.35 0 0 1-4.346 4.345zm0-6.69A2.345 2.345 0 1 0 62.337 37a2.348 2.348 0 0 0-2.346-2.345zM46.646 41.345A4.345 4.345 0 1 1 50.991 37a4.35 4.35 0 0 1-4.345 4.345zm0-6.69A2.345 2.345 0 1 0 48.991 37a2.348 2.348 0 0 0-2.345-2.345zM37.28 38H10.663a1 1 0 1 1 0-2H37.28a1 1 0 0 1 0 2zM69.009 69.983H4.991a3 3 0 0 1-3-3v-13.29a3 3 0 0 1 3-3h64.018a3 3 0 0 1 3 3v13.29a3 3 0 0 1-3 3zM4.991 52.693a1 1 0 0 0-1 1v13.29a1 1 0 0 0 1 1h64.018a1 1 0 0 0 1-1v-13.29a1 1 0 0 0-1-1z"/><path d="M59.991 64.683a4.345 4.345 0 1 1 4.346-4.345 4.35 4.35 0 0 1-4.346 4.345zm0-6.69a2.345 2.345 0 1 0 2.346 2.345 2.348 2.348 0 0 0-2.346-2.345zM46.646 64.683a4.345 4.345 0 1 1 4.345-4.345 4.35 4.35 0 0 1-4.345 4.345zm0-6.69a2.345 2.345 0 1 0 2.345 2.345 2.348 2.348 0 0 0-2.345-2.345zM37.28 61.338H10.663a1 1 0 0 1 0-2H37.28a1 1 0 0 1 0 2zM61.51 29.358a1 1 0 0 1-1-1v-5.049H13.49v5.049a1 1 0 1 1-2 0v-6.049a1 1 0 0 1 1-1h49.02a1 1 0 0 1 1 1v6.049a1 1 0 0 1-1 1zM61.51 52.688H12.49a1 1 0 0 1-1-1v-6.04a1 1 0 0 1 2 0v5.04h47.02v-5.04a1 1 0 0 1 2 0v6.04a1 1 0 0 1-1 1z"/></svg>